<svg t="1761749780604" class="icon" viewBox="0 0 1024 1024" version="1.1" xmlns="http://www.w3.org/2000/svg" p-id="1678" width="16" height="16"><path d="M512 1024C229.7 1024 0 794.3 0 512S229.7 0 512 0s512 229.7 512 512-229.7 512-512 512z m0-975.2C256.6 48.8 48.8 256.6 48.8 512S256.6 975.2 512 975.2 975.2 767.4 975.2 512 767.4 48.8 512 48.8z" p-id="1679"></path><path d="M505.3 568.4H720c20.9 0 35.8 16.4 35.8 32.7 0 16.4-17.9 32.7-35.8 32.7H466.5c-20.8 0-35.8-16.4-35.8-32.7V301c0-19.1 17.9-32.7 35.8-32.7s35.8 16.4 35.8 32.7v267.4h3z m0 0" p-id="1680"></path></svg>